<svg xmlns="http://www.w3.org/2000/svg" viewBox="0 0 382.24 430"><defs><style>.cls-1{fill:#e6e6e6;}.cls-2{fill:#fff;}.cls-3{fill:#f2f2f2;}.cls-4{fill:#3f3d56;}.cls-5{fill:#2f2e41;}.cls-6{fill:#6c63ff;}</style></defs><title>book</title><g id="Layer_2" data-name="Layer 2"><g id="book"><path class="cls-1" d="M287.38,426.58a6.88,6.88,0,0,1-3.46-.13L71.13,362.18a6.82,6.82,0,0,1-4.55-8.5L156.11,57.24a6.83,6.83,0,0,1,8.49-4.56h0L377.39,117a6.83,6.83,0,0,1,4.56,8.5L292.42,421.89a6.76,6.76,0,0,1-3.31,4A7.23,7.23,0,0,1,287.38,426.58Z"/><rect class="cls-2" x="254.47" y="-18.18" width="1.58" height="234.92" transform="translate(115.68 334.93) rotate(-80.61)"/><rect class="cls-2" x="249.83" y="9.88" width="1.58" height="234.92" transform="translate(84.12 353.83) rotate(-80.61)"/><rect class="cls-2" x="245.19" y="37.93" width="1.58" height="234.92" transform="translate(52.56 372.74) rotate(-80.61)"/><rect class="cls-2" x="240.55" y="65.99" width="1.58" height="234.92" transform="translate(20.99 391.65) rotate(-80.61)"/><rect class="cls-2" x="235.92" y="94.05" width="1.58" height="234.92" transform="translate(-10.57 410.56) rotate(-80.61)"/><line class="cls-2" x1="215.6" y1="231.32" x2="216.37" y2="229.95"/><line class="cls-2" x1="201.6" y1="256.08" x2="202.38" y2="254.7"/><line class="cls-2" x1="187.6" y1="280.83" x2="188.38" y2="279.46"/><line class="cls-2" x1="173.61" y1="305.59" x2="174.38" y2="304.21"/><path class="cls-3" d="M290.4,371.34a6.66,6.66,0,0,1-3.46.1l-216.59-50a6.82,6.82,0,0,1-5.11-8.17L134.86,11.56A6.8,6.8,0,0,1,143,6.45h0l216.59,50a6.82,6.82,0,0,1,5.12,8.17L295.12,366.33a6.73,6.73,0,0,1-3,4.25A6.59,6.59,0,0,1,290.4,371.34Z"/><rect class="cls-2" x="228.11" y="-78.56" width="1.58" height="234.92" transform="translate(153.19 258.39) rotate(-80.61)"/><rect class="cls-2" x="223.47" y="-50.5" width="1.58" height="234.92" transform="translate(121.63 277.3) rotate(-80.61)"/><rect class="cls-2" x="218.84" y="-22.44" width="1.58" height="234.92" transform="translate(90.07 296.21) rotate(-80.61)"/><rect class="cls-2" x="214.2" y="5.62" width="1.58" height="234.92" transform="matrix(0.16, -0.99, 0.99, 0.16, 58.5, 315.12)"/><rect class="cls-2" x="209.56" y="33.67" width="1.58" height="234.92" transform="matrix(0.16, -0.99, 0.99, 0.16, 26.94, 334.02)"/><rect class="cls-2" x="204.92" y="61.73" width="1.58" height="234.92" transform="translate(-4.62 352.93) rotate(-80.61)"/><rect class="cls-2" x="200.29" y="89.79" width="1.58" height="234.92" transform="translate(-36.19 371.84) rotate(-80.61)"/><line class="cls-2" x1="197.6" y1="190.32" x2="198.37" y2="188.95"/><line class="cls-2" x1="183.6" y1="215.08" x2="184.38" y2="213.7"/><line class="cls-2" x1="169.6" y1="239.83" x2="170.38" y2="238.46"/><line class="cls-2" x1="155.61" y1="264.59" x2="156.38" y2="263.21"/><path class="cls-4" d="M329.48,0H20.24V430H329.48a4.2,4.2,0,0,0,4.19-4.19V4.19A4.2,4.2,0,0,0,329.48,0ZM37.69,418.13a7.68,7.68,0,1,1,7.68-7.68,7.67,7.67,0,0,1-7.68,7.68Zm0-39.09a7.68,7.68,0,1,1,7.68-7.68A7.67,7.67,0,0,1,37.69,379Zm0-39.09a7.68,7.68,0,1,1,7.68-7.68A7.67,7.67,0,0,1,37.69,340Zm0-39.09a7.68,7.68,0,1,1,7.68-7.68,7.67,7.67,0,0,1-7.68,7.68Zm0-39.09a7.68,7.68,0,1,1,7.68-7.68h0a7.68,7.68,0,0,1-7.68,7.68Zm0-39.09A7.68,7.68,0,1,1,45.37,215h0a7.68,7.68,0,0,1-7.68,7.68Zm0-39.09a7.68,7.68,0,1,1,7.68-7.68h0a7.68,7.68,0,0,1-7.68,7.68Zm0-39.09a7.68,7.68,0,1,1,7.68-7.68h0a7.68,7.68,0,0,1-7.68,7.68Zm0-39.09a7.68,7.68,0,1,1,7.68-7.68h0a7.68,7.68,0,0,1-7.68,7.68Zm0-39.1a7.68,7.68,0,1,1,7.68-7.67,7.66,7.66,0,0,1-7.68,7.67Zm0-39.09a7.68,7.68,0,1,1,7.68-7.67h0a7.67,7.67,0,0,1-7.68,7.67Z"/><path class="cls-5" d="M20.24,23.73C18.17,23.73,0,23.64,0,20.24s18.17-3.49,20.24-3.49v1.4c-10.7,0-17.64,1.2-18.76,2.09,1.12.9,8.06,2.1,18.76,2.1S37.86,21.14,39,20.25c-.55-.38-2.76-1.19-8.71-1.7l.12-1.39c10.08.87,10.08,2.48,10.08,3.08C40.49,23.64,22.32,23.73,20.24,23.73Z"/><path class="cls-5" d="M20.24,62.13C18.17,62.13,0,62,0,58.64s18.17-3.49,20.24-3.49v1.39c-10.7,0-17.64,1.2-18.76,2.1,1.12.89,8.06,2.09,18.76,2.09S37.86,59.54,39,58.64c-.55-.38-2.76-1.18-8.71-1.7l.12-1.39c10.08.87,10.08,2.48,10.08,3.09C40.49,62,22.32,62.13,20.24,62.13Z"/><path class="cls-5" d="M20.24,101.22c-2.07,0-20.24-.1-20.24-3.49s18.17-3.49,20.24-3.49v1.39c-10.7,0-17.64,1.2-18.76,2.1,1.12.89,8.06,2.09,18.76,2.09S37.86,98.63,39,97.73c-.55-.38-2.76-1.18-8.71-1.7l.12-1.39c10.08.87,10.08,2.48,10.08,3.09C40.49,101.12,22.32,101.22,20.24,101.22Z"/><path class="cls-5" d="M20.24,140.31c-2.07,0-20.24-.1-20.24-3.49s18.17-3.49,20.24-3.49v1.39c-10.7,0-17.64,1.2-18.76,2.1,1.12.89,8.06,2.09,18.76,2.09s17.62-1.19,18.76-2.09c-.55-.38-2.76-1.18-8.71-1.7l.12-1.39c10.08.87,10.08,2.48,10.08,3.09C40.49,140.21,22.32,140.31,20.24,140.31Z"/><path class="cls-5" d="M20.24,179.4c-2.07,0-20.24-.1-20.24-3.49s18.17-3.49,20.24-3.49v1.39c-10.7,0-17.64,1.2-18.76,2.1,1.12.9,8.06,2.09,18.76,2.09s17.62-1.19,18.76-2.08c-.55-.39-2.76-1.19-8.71-1.71l.12-1.39c10.08.87,10.08,2.48,10.08,3.09C40.49,179.3,22.32,179.4,20.24,179.4Z"/><path class="cls-5" d="M20.24,218.49C18.17,218.49,0,218.39,0,215s18.17-3.49,20.24-3.49v1.4c-10.7,0-17.64,1.19-18.76,2.09,1.12.9,8.06,2.09,18.76,2.09S37.86,215.9,39,215c-.55-.39-2.76-1.19-8.71-1.71l.12-1.39c10.08.88,10.08,2.48,10.08,3.09C40.49,218.39,22.32,218.49,20.24,218.49Z"/><path class="cls-5" d="M20.24,257.58c-2.07,0-20.24-.1-20.24-3.49s18.17-3.49,20.24-3.49V252c-10.7,0-17.64,1.19-18.76,2.09,1.12.9,8.06,2.1,18.76,2.1S37.86,255,39,254.1c-.55-.39-2.76-1.19-8.71-1.7l.12-1.4c10.08.88,10.08,2.49,10.08,3.09C40.49,257.48,22.32,257.58,20.24,257.58Z"/><path class="cls-5" d="M20.24,296.67c-2.07,0-20.24-.1-20.24-3.49s18.17-3.49,20.24-3.49v1.4c-10.7,0-17.64,1.2-18.76,2.09,1.12.9,8.06,2.1,18.76,2.1s17.62-1.2,18.76-2.09c-.55-.39-2.76-1.19-8.71-1.7l.12-1.39c10.08.87,10.08,2.48,10.08,3.08C40.49,296.57,22.32,296.67,20.24,296.67Z"/><path class="cls-5" d="M20.24,335.76c-2.07,0-20.24-.09-20.24-3.49s18.17-3.49,20.24-3.49v1.4c-10.7,0-17.64,1.2-18.76,2.09,1.12.9,8.06,2.1,18.76,2.1s17.62-1.2,18.76-2.09c-.55-.38-2.76-1.19-8.71-1.7l.12-1.39c10.08.87,10.08,2.48,10.08,3.08C40.49,335.67,22.32,335.76,20.24,335.76Z"/><path class="cls-5" d="M20.24,374.85c-2.07,0-20.24-.09-20.24-3.49s18.17-3.49,20.24-3.49v1.4c-10.7,0-17.64,1.2-18.76,2.09,1.12.9,8.06,2.1,18.76,2.1s17.62-1.2,18.76-2.09c-.55-.38-2.76-1.19-8.71-1.7l.12-1.39c10.08.87,10.08,2.48,10.08,3.08C40.49,374.76,22.32,374.85,20.24,374.85Z"/><path class="cls-5" d="M20.24,413.94c-2.07,0-20.24-.09-20.24-3.49S18.17,407,20.24,407v1.4c-10.7,0-17.64,1.2-18.76,2.09,1.12.9,8.06,2.1,18.76,2.1s17.62-1.19,18.76-2.09c-.55-.38-2.76-1.19-8.71-1.7l.12-1.39c10.08.87,10.08,2.48,10.08,3.08C40.49,413.85,22.32,413.94,20.24,413.94Z"/><path class="cls-2" d="M266.31,164.39H112.74a4.54,4.54,0,0,1-4.54-4.54v-60a4.55,4.55,0,0,1,4.54-4.54H266.31a4.55,4.55,0,0,1,4.53,4.54v60A4.53,4.53,0,0,1,266.31,164.39Z"/><path class="cls-6" d="M209.07,115.88H170a3.49,3.49,0,1,1,0-7h39.09a3.49,3.49,0,1,1,0,7Z"/><path class="cls-6" d="M230.71,133.33H148.34a3.49,3.49,0,0,1,0-7h82.37a3.49,3.49,0,0,1,0,7Z"/><path class="cls-6" d="M230.71,150.78H148.34a3.49,3.49,0,0,1,0-7h82.37a3.49,3.49,0,1,1,0,7Z"/></g></g></svg>